<svg xmlns="http://www.w3.org/2000/svg" viewBox="0 0 512 512">
  <defs>
    <linearGradient id="g" x1="0%" y1="0%" x2="100%" y2="100%">
      <stop offset="0%" stop-color="#061A45"/>
      <stop offset="55%" stop-color="#0A2A6B"/>
      <stop offset="100%" stop-color="#3E9BFF"/>
    </linearGradient>
  </defs>
  <rect width="512" height="512" fill="url(#g)"/>
  <g fill="none" stroke="#FFFFFF" stroke-width="22" stroke-linecap="round">
    <path d="M96 196c26 0 34 26 60 26s34-26 60-26 34 26 60 26 34-26 60-26 34 26 60 26 34-26 60-26" opacity=".55"/>
    <path d="M96 256c26 0 34 26 60 26s34-26 60-26 34 26 60 26 34-26 60-26 34 26 60 26 34-26 60-26" opacity=".8"/>
    <path d="M96 316c26 0 34 26 60 26s34-26 60-26 34 26 60 26 34-26 60-26 34 26 60 26 34-26 60-26"/>
  </g>
</svg>
